<svg width="204" height="100" viewBox="0 0 204 100" fill="none" xmlns="http://www.w3.org/2000/svg">
<path d="M35.6743 75.088C33.9676 75.088 32.4743 74.7253 31.1943 74C29.9569 73.3173 29.3383 72.1013 29.3383 70.352C29.3383 69.2427 29.6156 68.0053 30.1703 66.64C30.9383 67.4933 31.6423 68.0907 32.2823 68.432C32.9649 68.7733 33.6903 68.944 34.4583 68.944C36.5916 68.944 38.1703 67.7493 39.1943 65.36C40.2609 62.9707 40.7943 60.3253 40.7943 57.424C40.7943 52.0053 38.7676 49.296 34.7143 49.296C33.5623 49.296 32.5809 49.36 31.7703 49.488L26.5223 74H17.3063L26.0103 33.296L35.4823 32.016L32.4743 46.224H32.8583C34.4796 46.224 35.9943 45.712 37.4023 44.688C38.8103 43.6213 39.9409 42.2987 40.7943 40.72C41.6476 39.0987 42.0743 37.4773 42.0743 35.856C42.0743 33.8933 41.3703 32.2507 39.9623 30.928C38.5969 29.6053 36.4849 28.944 33.6263 28.944C31.0236 28.944 28.4849 29.5413 26.0103 30.736C23.5356 31.888 21.5089 33.6373 19.9303 35.984C18.3943 38.3307 17.6263 41.168 17.6263 44.496C17.6263 46.0747 17.7756 47.184 18.0743 47.824C18.3729 48.4213 18.5223 48.7627 18.5223 48.848C16.2609 48.848 14.5543 48.4 13.4023 47.504C12.2503 46.5653 11.6743 45.0507 11.6743 42.96C11.6743 40.0587 12.7623 37.3067 14.9383 34.704C17.1143 32.1013 19.9943 30.0107 23.5783 28.432C27.1623 26.8107 30.9383 26 34.9063 26C37.8929 26 40.4103 26.4693 42.4583 27.408C44.5063 28.3467 46.0209 29.584 47.0023 31.12C48.0263 32.656 48.5382 34.3413 48.5382 36.176C48.5382 38.1387 47.9836 40.0373 46.8743 41.872C45.7649 43.7067 44.1863 45.2 42.1383 46.352C44.6983 46.8213 46.5969 48.016 47.8343 49.936C49.0716 51.8133 49.6903 54.0533 49.6903 56.656C49.6903 59.088 49.2209 61.7333 48.2823 64.592C47.3863 67.4507 45.8716 69.9253 43.7383 72.016C41.6476 74.064 38.9596 75.088 35.6743 75.088ZM58.2423 74.384C56.1943 74.384 54.5303 73.744 53.2503 72.464C52.0129 71.184 51.3942 69.264 51.3942 66.704C51.3942 65.6373 51.5649 64.2507 51.9062 62.544L58.7543 30.48L68.2263 29.2L60.8663 63.76C60.6956 64.4 60.6103 65.0827 60.6103 65.808C60.6103 66.6613 60.8023 67.28 61.1863 67.664C61.6129 68.0053 62.2956 68.176 63.2343 68.176C64.4716 68.176 65.6236 67.664 66.6903 66.64C67.7569 65.5733 68.5249 64.208 68.9943 62.544H71.6823C70.1036 67.152 68.0769 70.288 65.6023 71.952C63.1276 73.5733 60.6743 74.384 58.2423 74.384ZM78.3128 74.256C75.1554 74.256 72.6594 73.4453 70.8248 71.824C68.9901 70.2027 68.0727 67.6427 68.0727 64.144C68.0727 61.2427 68.6701 58.0213 69.8648 54.48C71.0594 50.9387 72.9794 47.888 75.6248 45.328C78.2701 42.7253 81.5981 41.424 85.6088 41.424C91.0701 41.424 93.8008 44.8373 93.8008 51.664V51.728C93.9288 51.7707 94.1634 51.792 94.5048 51.792C95.9128 51.792 97.5341 51.4293 99.3688 50.704C101.203 49.936 102.867 49.0187 104.361 47.952L104.937 49.68C103.699 51.0027 102.078 52.1333 100.073 53.072C98.1101 53.968 95.9554 54.608 93.6088 54.992C93.2674 58.8747 92.3928 62.2667 90.9848 65.168C89.5768 68.0693 87.7634 70.3093 85.5448 71.888C83.3261 73.4667 80.9154 74.256 78.3128 74.256ZM80.8728 68.496C81.8968 68.496 82.9208 67.92 83.9448 66.768C84.9688 65.5733 85.8648 63.9733 86.6328 61.968C87.4008 59.92 87.9554 57.6587 88.2968 55.184C87.1448 54.928 86.5688 54.032 86.5688 52.496C86.5688 50.7467 87.2301 49.5947 88.5528 49.04C88.4674 47.632 88.2541 46.672 87.9128 46.16C87.5714 45.6053 86.9741 45.328 86.1208 45.328C84.7128 45.328 83.3474 46.352 82.0248 48.4C80.7021 50.448 79.6354 52.9013 78.8248 55.76C78.0141 58.6187 77.6088 61.136 77.6088 63.312C77.6088 65.36 77.8434 66.7467 78.3128 67.472C78.7821 68.1547 79.6354 68.496 80.8728 68.496ZM108.422 90C106.374 90 104.667 89.4667 103.302 88.4C101.936 87.3333 101.254 85.7973 101.254 83.792C101.254 81.36 102.235 79.3973 104.198 77.904C106.16 76.4533 108.656 75.2373 111.686 74.256L112.454 70.864C110.278 73.2107 107.718 74.384 104.774 74.384C102.342 74.384 100.315 73.552 98.6938 71.888C97.0724 70.224 96.2617 67.6213 96.2617 64.08C96.2617 60.9227 96.8804 57.616 98.1178 54.16C99.3978 50.6613 101.275 47.7173 103.75 45.328C106.267 42.896 109.254 41.68 112.71 41.68C114.459 41.68 115.76 41.9787 116.614 42.576C117.467 43.1733 117.894 43.9627 117.894 44.944V45.328L118.598 42H127.814L121.478 71.696C123.526 71.0133 125.168 69.9893 126.406 68.624C127.643 67.2587 128.688 65.232 129.542 62.544H132.23C131.078 66.3413 129.52 69.136 127.558 70.928C125.595 72.6773 123.376 73.872 120.902 74.512L119.942 79.12C119.088 83.2587 117.616 86.096 115.526 87.632C113.435 89.2107 111.067 90 108.422 90ZM108.934 68.176C109.915 68.176 110.918 67.728 111.942 66.832C112.966 65.936 113.67 64.72 114.054 63.184L117.318 48.016C117.318 47.504 117.104 46.992 116.678 46.48C116.251 45.9253 115.59 45.648 114.694 45.648C112.987 45.648 111.451 46.6507 110.086 48.656C108.72 50.6187 107.654 53.008 106.886 55.824C106.118 58.5973 105.734 61.0507 105.734 63.184C105.734 65.3173 106.032 66.6827 106.63 67.28C107.27 67.8773 108.038 68.176 108.934 68.176ZM106.95 85.008C107.675 85.008 108.379 84.5173 109.062 83.536C109.744 82.5547 110.278 81.1467 110.662 79.312L111.046 77.456C106.864 78.992 104.774 80.8053 104.774 82.896C104.774 83.4507 104.966 83.9413 105.35 84.368C105.734 84.7947 106.267 85.008 106.95 85.008ZM140.219 38.544C138.811 38.544 137.617 38.0533 136.635 37.072C135.654 36.0907 135.163 34.896 135.163 33.488C135.163 32.08 135.654 30.8853 136.635 29.904C137.617 28.88 138.811 28.368 140.219 28.368C141.627 28.368 142.822 28.88 143.803 29.904C144.827 30.8853 145.339 32.08 145.339 33.488C145.339 34.896 144.827 36.0907 143.803 37.072C142.822 38.0533 141.627 38.544 140.219 38.544ZM135.867 74.384C133.819 74.384 132.155 73.744 130.875 72.464C129.638 71.184 129.019 69.264 129.019 66.704C129.019 65.6373 129.19 64.2507 129.531 62.544L133.883 42H143.099L138.491 63.76C138.321 64.4 138.235 65.0827 138.235 65.808C138.235 66.6613 138.427 67.28 138.811 67.664C139.238 68.0053 139.921 68.176 140.859 68.176C142.097 68.176 143.249 67.664 144.315 66.64C145.382 65.5733 146.15 64.208 146.619 62.544H149.307C147.729 67.152 145.702 70.288 143.227 71.952C140.753 73.5733 138.299 74.384 135.867 74.384ZM140.834 90C138.828 90 137.079 89.3387 135.586 88.016C134.05 86.736 133.282 85.0933 133.282 83.088C133.282 81.2533 133.751 79.7387 134.69 78.544C135.628 77.3493 136.844 76.3893 138.338 75.664C139.831 74.9813 141.815 74.256 144.29 73.488L152.034 36.944C152.887 32.848 154.38 30.0107 156.514 28.432C158.69 26.8533 161.079 26.064 163.682 26.064C165.687 26.064 167.436 26.7253 168.93 28.048C170.466 29.328 171.234 30.9707 171.234 32.976C171.234 33.9573 171.17 34.832 171.042 35.6H168.034C168.119 34.6613 168.162 34.0853 168.162 33.872C168.162 33.1893 167.927 32.656 167.458 32.272C166.988 31.888 166.412 31.696 165.73 31.696C164.834 31.696 163.959 32.1013 163.106 32.912C162.252 33.68 161.634 35.024 161.25 36.944L160.162 42H164.834L164.386 44.56H159.65L152.29 79.12C151.436 83.2587 149.964 86.096 147.874 87.632C145.783 89.2107 143.436 90 140.834 90ZM139.362 84.304C141.068 84.304 142.284 82.64 143.01 79.312L143.842 75.6C141.58 76.368 139.852 77.2427 138.658 78.224C137.42 79.248 136.802 80.5707 136.802 82.192C136.802 82.704 137.058 83.1733 137.57 83.6C138.082 84.0693 138.679 84.304 139.362 84.304ZM173.64 90C171.635 90 169.864 89.3387 168.328 88.016C166.835 86.736 166.088 85.0933 166.088 83.088C166.088 81.2107 166.558 79.6747 167.496 78.48C168.435 77.2853 169.651 76.3467 171.144 75.664C172.638 74.9813 174.643 74.256 177.16 73.488L177.8 70.672C175.624 73.1467 173.022 74.384 169.992 74.384C167.944 74.384 166.28 73.744 165 72.464C163.763 71.184 163.144 69.264 163.144 66.704C163.144 65.6373 163.315 64.2507 163.656 62.544L168.008 42H177.224L172.616 63.76C172.488 64.272 172.424 64.8053 172.424 65.36C172.424 67.2373 173.064 68.176 174.344 68.176C175.539 68.176 176.563 67.6853 177.416 66.704C178.27 65.68 178.952 64.2933 179.464 62.544L183.816 42H193.096L185.288 79.12C184.435 83.216 182.92 86.0533 180.744 87.632C178.611 89.2107 176.243 90 173.64 90ZM172.168 84.304C172.936 84.304 173.662 83.8987 174.344 83.088C175.027 82.32 175.56 81.0613 175.944 79.312L176.712 75.536C174.451 76.304 172.702 77.2 171.464 78.224C170.227 79.248 169.608 80.5707 169.608 82.192C169.608 82.704 169.864 83.1733 170.376 83.6C170.888 84.0693 171.486 84.304 172.168 84.304Z" fill="black"/>
</svg>